<mxfile host="65bd71144e">
    <diagram id="vtm96KGM3Zfml76jwvZ8" name="Page-1">
        <mxGraphModel dx="1216" dy="779" grid="1" gridSize="10" guides="1" tooltips="1" connect="1" arrows="1" fold="1" page="1" pageScale="1" pageWidth="850" pageHeight="1100" math="0" shadow="0">
            <root>
                <mxCell id="0"/>
                <mxCell id="1" parent="0"/>
                <mxCell id="2" value="" style="rounded=1;whiteSpace=wrap;html=1;" vertex="1" parent="1">
                    <mxGeometry x="425" y="330" width="120" height="60" as="geometry"/>
                </mxCell>
                <mxCell id="5" value="" style="shape=flexArrow;endArrow=classic;startArrow=classic;html=1;" edge="1" parent="1">
                    <mxGeometry width="100" height="100" relative="1" as="geometry">
                        <mxPoint x="320" y="410" as="sourcePoint"/>
                        <mxPoint x="500" y="210" as="targetPoint"/>
                        <Array as="points">
                            <mxPoint x="470" y="180"/>
                            <mxPoint x="670" y="440"/>
                            <mxPoint x="550" y="270"/>
                            <mxPoint x="270" y="280"/>
                            <mxPoint x="480" y="570"/>
                            <mxPoint x="710" y="270"/>
                            <mxPoint x="410" y="270"/>
                            <mxPoint x="270" y="470"/>
                            <mxPoint x="690" y="470"/>
                        </Array>
                    </mxGeometry>
                </mxCell>
            </root>
        </mxGraphModel>
    </diagram>
</mxfile>